<svg width="88" height="71" viewBox="0 0 88 71" fill="none" xmlns="http://www.w3.org/2000/svg">
<g filter="url(#filter0_d_1_3588)">
<mask id="path-1-inside-1_1_3588" fill="white">
<path d="M6.40972 46.7798C7.67346 46.0812 8.16556 47.221 7.34655 47.453C5.53589 47.9659 6.10393 50.4426 7.91502 50.9197C9.21457 51.262 12.7825 50.7927 13.6671 50.5702C13.8435 50.4927 15.5683 50.4219 17.3444 50.4036C19.1205 50.3852 21.9478 51.1477 22.7012 51.2579C23.4548 51.3683 24.6838 51.5888 25.4461 51.5979C26.2086 51.6071 27.4601 51.1201 27.4827 51.1154C27.5049 51.1108 27.5677 51.0421 27.7159 50.8675C27.8639 50.6928 28.3527 50.3484 28.3885 50.353C28.4245 50.3576 28.4783 50.4817 28.5052 50.7021C28.5321 50.9226 28.4155 51.0788 28.4155 51.0788C28.4155 51.0788 29.1108 50.895 29.1108 51.0051C29.1108 51.1154 28.9269 51.4369 28.9088 51.4691C28.891 51.5014 29.6266 52.0664 29.8104 52.3283C29.9943 52.59 29.9226 52.5762 29.9764 52.8842C30.0302 53.1918 30.5012 53.9727 30.5191 54.0509C30.5372 54.1289 30.5236 54.1426 30.4474 54.207C30.3711 54.2714 30.3846 54.2345 30.2949 54.3219C30.2051 54.4092 29.8822 54.8087 29.5056 54.9926C29.1287 55.1762 29.0659 55.0201 28.7699 54.8455C28.4739 54.671 27.0925 54.8915 26.8323 55.0937C26.6195 55.259 26.1604 55.7074 26.0005 55.8649L25.9442 55.9206C25.9442 55.9206 25.8724 56.0309 25.7829 56.4535C25.6931 56.8761 25.729 57.2986 25.8367 57.997C25.9442 58.6952 27.0655 60.3121 27.2359 60.45C27.4063 60.5877 27.7114 60.7347 27.9266 60.9737C28.1419 61.2125 27.9535 61.3595 27.7202 61.4331C27.4872 61.5065 26.9129 61.3871 26.7335 61.3135C26.5543 61.24 26.4645 60.7256 25.8724 60.303C25.2804 59.8804 24.3475 59.1086 24.204 58.7228C24.0604 58.3368 23.9348 57.2712 23.9348 57.2712C23.9348 57.2712 23.8092 57.5651 23.4145 58.0612C23.0197 58.5573 22.1047 59.3842 22.1047 59.7334C22.1047 60.0825 22.2124 60.6521 22.3381 60.8726C22.4636 61.093 22.6431 61.1114 22.8044 61.1665L22.8865 61.1937C23.0248 61.2401 23.1694 61.3013 23.2889 61.5157C23.4324 61.7729 23.2709 61.8465 23.0019 61.8465C22.7329 61.8465 22.356 61.9751 21.8895 61.7914C21.4231 61.6075 20.5619 60.0458 20.3646 59.6599C20.1673 59.274 20.5978 58.5575 20.7773 58.2266C20.9566 57.8959 21.2079 57.4549 21.2079 57.4549C21.2079 57.4549 19.5574 57.4734 18.6962 57.2529C17.835 57.0323 16.8467 56.959 16.8467 56.959C16.8467 56.959 16.7748 57.3633 16.6314 57.9512C16.4878 58.5393 15.8061 59.2192 15.7342 59.4396C15.6625 59.6601 16.129 60.1194 16.3981 60.4135C16.6671 60.7074 17.2055 60.9096 17.4207 61.0566C17.636 61.2036 17.8871 61.4424 17.7435 61.7364C17.6 62.0305 17.4745 61.7732 17.2234 61.8283C16.9721 61.8835 16.3443 61.9752 15.9138 61.8835C15.4832 61.7915 15.4652 61.2402 14.8911 60.7442C14.317 60.248 13.725 59.6968 13.7788 59.3662C13.8325 59.0353 13.9044 57.547 13.8864 57.4552C13.8685 57.3633 13.1329 57.9697 12.3435 58.3554C11.5542 58.7414 9.9396 59.1366 9.84088 59.403C9.74218 59.6694 9.4193 60.9005 9.47309 61.2679C9.52689 61.6354 9.6256 61.8467 9.72431 62.0396L9.76602 62.1214C9.82267 62.2355 9.81397 62.2495 9.72431 62.3338C9.61662 62.4348 8.83623 62.3429 8.66576 62.1039C8.4954 61.8652 8.18151 60.4135 8.29808 60.092C8.41465 59.7705 9.04264 57.6573 9.27589 57.4735C9.50903 57.2897 10.3523 56.7753 10.8187 55.6177C11.1883 54.7008 11.0737 53.2881 11.2331 52.4846C8.67126 52.4601 5.42079 52.728 5 49.1032C4.88252 48.0915 5.53522 47.2633 6.40972 46.7798ZM54.982 0L77.7412 55.1475C78.8501 57.8318 80.8196 59.1741 83.6498 59.1741H84.0001V61.0561H55.4196V59.1741C60.7302 58.9991 63.3854 57.7443 63.3854 55.41C63.3854 54.7681 63.2686 54.1699 63.0353 53.6156L58.8336 43.5051H38.3064L35.1552 51.5584C34.7467 52.6089 34.5424 53.6301 34.5424 54.6222C34.5424 57.4817 36.8767 58.9991 41.5452 59.1741V61.0561L29.9216 61.0592C30.7367 58.7057 32.5583 54.0727 32.6971 53.6988C32.8762 53.2157 33.1393 52.5498 33.1348 52.0605C33.1303 51.5712 33.2774 50.8454 33.006 49.9214C32.7347 48.9973 32.4119 48.2058 32.3644 47.7041C32.3172 47.2026 32.4692 45.8804 32.5199 45.0361C32.5706 44.1918 32.7978 43.6189 32.9036 43.5115C33.0093 43.404 32.9749 43.3161 33.265 43.2963C33.5551 43.2765 33.7185 43.2168 34.1357 43.2581C34.5527 43.2993 35.0225 43.1629 35.3769 43.1469C35.7312 43.1311 36.1074 43.1571 36.5763 42.8995C37.0453 42.6419 37.1268 42.4146 37.3122 42.2013C37.4977 41.9881 37.7298 41.6147 37.8068 41.4094C37.8837 41.2043 37.9285 41.0762 37.5415 40.9901C37.1544 40.9039 36.5338 40.5957 36.1048 40.5102C35.6758 40.4246 35.1562 40.316 34.9453 40.1193C34.7344 39.9227 34.639 39.6846 34.4882 39.5351C34.3374 39.3856 34.2533 39.3077 33.9114 39.1935C33.5698 39.0795 32.9857 38.7296 32.776 38.6751C32.5661 38.6205 32.2971 38.5609 32.2395 38.4444C32.1817 38.328 31.8377 37.5553 31.6945 37.198C31.5512 36.8409 31.2728 36.2351 31.1655 36.2478C31.0584 36.2609 30.9567 37.2007 30.7326 37.7617C30.5086 38.3227 30.1849 38.8472 30.1724 39.1354C30.16 39.4234 29.881 39.878 29.6622 40.2425C29.4435 40.607 28.7041 41.9811 28.4155 42.9709C28.127 43.9607 27.4066 45.2036 27.0385 45.5712C26.6701 45.9389 24.5901 47.2399 24.0422 47.6161C23.8783 47.7287 23.7512 47.8172 23.637 47.894L43.2884 0H54.982ZM48.2417 17.8572L39.6632 40.0038H57.3892L48.2417 17.8572Z"/>
</mask>
<path d="M6.40972 46.7798C7.67346 46.0812 8.16556 47.221 7.34655 47.453C5.53589 47.9659 6.10393 50.4426 7.91502 50.9197C9.21457 51.262 12.7825 50.7927 13.6671 50.5702C13.8435 50.4927 15.5683 50.4219 17.3444 50.4036C19.1205 50.3852 21.9478 51.1477 22.7012 51.2579C23.4548 51.3683 24.6838 51.5888 25.4461 51.5979C26.2086 51.6071 27.4601 51.1201 27.4827 51.1154C27.5049 51.1108 27.5677 51.0421 27.7159 50.8675C27.8639 50.6928 28.3527 50.3484 28.3885 50.353C28.4245 50.3576 28.4783 50.4817 28.5052 50.7021C28.5321 50.9226 28.4155 51.0788 28.4155 51.0788C28.4155 51.0788 29.1108 50.895 29.1108 51.0051C29.1108 51.1154 28.9269 51.4369 28.9088 51.4691C28.891 51.5014 29.6266 52.0664 29.8104 52.3283C29.9943 52.59 29.9226 52.5762 29.9764 52.8842C30.0302 53.1918 30.5012 53.9727 30.5191 54.0509C30.5372 54.1289 30.5236 54.1426 30.4474 54.207C30.3711 54.2714 30.3846 54.2345 30.2949 54.3219C30.2051 54.4092 29.8822 54.8087 29.5056 54.9926C29.1287 55.1762 29.0659 55.0201 28.7699 54.8455C28.4739 54.671 27.0925 54.8915 26.8323 55.0937C26.6195 55.259 26.1604 55.7074 26.0005 55.8649L25.9442 55.9206C25.9442 55.9206 25.8724 56.0309 25.7829 56.4535C25.6931 56.8761 25.729 57.2986 25.8367 57.997C25.9442 58.6952 27.0655 60.3121 27.2359 60.45C27.4063 60.5877 27.7114 60.7347 27.9266 60.9737C28.1419 61.2125 27.9535 61.3595 27.7202 61.4331C27.4872 61.5065 26.9129 61.3871 26.7335 61.3135C26.5543 61.24 26.4645 60.7256 25.8724 60.303C25.2804 59.8804 24.3475 59.1086 24.204 58.7228C24.0604 58.3368 23.9348 57.2712 23.9348 57.2712C23.9348 57.2712 23.8092 57.5651 23.4145 58.0612C23.0197 58.5573 22.1047 59.3842 22.1047 59.7334C22.1047 60.0825 22.2124 60.6521 22.3381 60.8726C22.4636 61.093 22.6431 61.1114 22.8044 61.1665L22.8865 61.1937C23.0248 61.2401 23.1694 61.3013 23.2889 61.5157C23.4324 61.7729 23.2709 61.8465 23.0019 61.8465C22.7329 61.8465 22.356 61.9751 21.8895 61.7914C21.4231 61.6075 20.5619 60.0458 20.3646 59.6599C20.1673 59.274 20.5978 58.5575 20.7773 58.2266C20.9566 57.8959 21.2079 57.4549 21.2079 57.4549C21.2079 57.4549 19.5574 57.4734 18.6962 57.2529C17.835 57.0323 16.8467 56.959 16.8467 56.959C16.8467 56.959 16.7748 57.3633 16.6314 57.9512C16.4878 58.5393 15.8061 59.2192 15.7342 59.4396C15.6625 59.6601 16.129 60.1194 16.3981 60.4135C16.6671 60.7074 17.2055 60.9096 17.4207 61.0566C17.636 61.2036 17.8871 61.4424 17.7435 61.7364C17.6 62.0305 17.4745 61.7732 17.2234 61.8283C16.9721 61.8835 16.3443 61.9752 15.9138 61.8835C15.4832 61.7915 15.4652 61.2402 14.8911 60.7442C14.317 60.248 13.725 59.6968 13.7788 59.3662C13.8325 59.0353 13.9044 57.547 13.8864 57.4552C13.8685 57.3633 13.1329 57.9697 12.3435 58.3554C11.5542 58.7414 9.9396 59.1366 9.84088 59.403C9.74218 59.6694 9.4193 60.9005 9.47309 61.2679C9.52689 61.6354 9.6256 61.8467 9.72431 62.0396L9.76602 62.1214C9.82267 62.2355 9.81397 62.2495 9.72431 62.3338C9.61662 62.4348 8.83623 62.3429 8.66576 62.1039C8.4954 61.8652 8.18151 60.4135 8.29808 60.092C8.41465 59.7705 9.04264 57.6573 9.27589 57.4735C9.50903 57.2897 10.3523 56.7753 10.8187 55.6177C11.1883 54.7008 11.0737 53.2881 11.2331 52.4846C8.67126 52.4601 5.42079 52.728 5 49.1032C4.88252 48.0915 5.53522 47.2633 6.40972 46.7798ZM54.982 0L77.7412 55.1475C78.8501 57.8318 80.8196 59.1741 83.6498 59.1741H84.0001V61.0561H55.4196V59.1741C60.7302 58.9991 63.3854 57.7443 63.3854 55.41C63.3854 54.7681 63.2686 54.1699 63.0353 53.6156L58.8336 43.5051H38.3064L35.1552 51.5584C34.7467 52.6089 34.5424 53.6301 34.5424 54.6222C34.5424 57.4817 36.8767 58.9991 41.5452 59.1741V61.0561L29.9216 61.0592C30.7367 58.7057 32.5583 54.0727 32.6971 53.6988C32.8762 53.2157 33.1393 52.5498 33.1348 52.0605C33.1303 51.5712 33.2774 50.8454 33.006 49.9214C32.7347 48.9973 32.4119 48.2058 32.3644 47.7041C32.3172 47.2026 32.4692 45.8804 32.5199 45.0361C32.5706 44.1918 32.7978 43.6189 32.9036 43.5115C33.0093 43.404 32.9749 43.3161 33.265 43.2963C33.5551 43.2765 33.7185 43.2168 34.1357 43.2581C34.5527 43.2993 35.0225 43.1629 35.3769 43.1469C35.7312 43.1311 36.1074 43.1571 36.5763 42.8995C37.0453 42.6419 37.1268 42.4146 37.3122 42.2013C37.4977 41.9881 37.7298 41.6147 37.8068 41.4094C37.8837 41.2043 37.9285 41.0762 37.5415 40.9901C37.1544 40.9039 36.5338 40.5957 36.1048 40.5102C35.6758 40.4246 35.1562 40.316 34.9453 40.1193C34.7344 39.9227 34.639 39.6846 34.4882 39.5351C34.3374 39.3856 34.2533 39.3077 33.9114 39.1935C33.5698 39.0795 32.9857 38.7296 32.776 38.6751C32.5661 38.6205 32.2971 38.5609 32.2395 38.4444C32.1817 38.328 31.8377 37.5553 31.6945 37.198C31.5512 36.8409 31.2728 36.2351 31.1655 36.2478C31.0584 36.2609 30.9567 37.2007 30.7326 37.7617C30.5086 38.3227 30.1849 38.8472 30.1724 39.1354C30.16 39.4234 29.881 39.878 29.6622 40.2425C29.4435 40.607 28.7041 41.9811 28.4155 42.9709C28.127 43.9607 27.4066 45.2036 27.0385 45.5712C26.6701 45.9389 24.5901 47.2399 24.0422 47.6161C23.8783 47.7287 23.7512 47.8172 23.637 47.894L43.2884 0H54.982ZM48.2417 17.8572L39.6632 40.0038H57.3892L48.2417 17.8572Z" fill="#59443F"/>
<path d="M6.40972 46.7798C7.67346 46.0812 8.16556 47.221 7.34655 47.453C5.53589 47.9659 6.10393 50.4426 7.91502 50.9197C9.21457 51.262 12.7825 50.7927 13.6671 50.5702C13.8435 50.4927 15.5683 50.4219 17.3444 50.4036C19.1205 50.3852 21.9478 51.1477 22.7012 51.2579C23.4548 51.3683 24.6838 51.5888 25.4461 51.5979C26.2086 51.6071 27.4601 51.1201 27.4827 51.1154C27.5049 51.1108 27.5677 51.0421 27.7159 50.8675C27.8639 50.6928 28.3527 50.3484 28.3885 50.353C28.4245 50.3576 28.4783 50.4817 28.5052 50.7021C28.5321 50.9226 28.4155 51.0788 28.4155 51.0788C28.4155 51.0788 29.1108 50.895 29.1108 51.0051C29.1108 51.1154 28.9269 51.4369 28.9088 51.4691C28.891 51.5014 29.6266 52.0664 29.8104 52.3283C29.9943 52.59 29.9226 52.5762 29.9764 52.8842C30.0302 53.1918 30.5012 53.9727 30.5191 54.0509C30.5372 54.1289 30.5236 54.1426 30.4474 54.207C30.3711 54.2714 30.3846 54.2345 30.2949 54.3219C30.2051 54.4092 29.8822 54.8087 29.5056 54.9926C29.1287 55.1762 29.0659 55.0201 28.7699 54.8455C28.4739 54.671 27.0925 54.8915 26.8323 55.0937C26.6195 55.259 26.1604 55.7074 26.0005 55.8649L25.9442 55.9206C25.9442 55.9206 25.8724 56.0309 25.7829 56.4535C25.6931 56.8761 25.729 57.2986 25.8367 57.997C25.9442 58.6952 27.0655 60.3121 27.2359 60.45C27.4063 60.5877 27.7114 60.7347 27.9266 60.9737C28.1419 61.2125 27.9535 61.3595 27.7202 61.4331C27.4872 61.5065 26.9129 61.3871 26.7335 61.3135C26.5543 61.24 26.4645 60.7256 25.8724 60.303C25.2804 59.8804 24.3475 59.1086 24.204 58.7228C24.0604 58.3368 23.9348 57.2712 23.9348 57.2712C23.9348 57.2712 23.8092 57.5651 23.4145 58.0612C23.0197 58.5573 22.1047 59.3842 22.1047 59.7334C22.1047 60.0825 22.2124 60.6521 22.3381 60.8726C22.4636 61.093 22.6431 61.1114 22.8044 61.1665L22.8865 61.1937C23.0248 61.2401 23.1694 61.3013 23.2889 61.5157C23.4324 61.7729 23.2709 61.8465 23.0019 61.8465C22.7329 61.8465 22.356 61.9751 21.8895 61.7914C21.4231 61.6075 20.5619 60.0458 20.3646 59.6599C20.1673 59.274 20.5978 58.5575 20.7773 58.2266C20.9566 57.8959 21.2079 57.4549 21.2079 57.4549C21.2079 57.4549 19.5574 57.4734 18.6962 57.2529C17.835 57.0323 16.8467 56.959 16.8467 56.959C16.8467 56.959 16.7748 57.3633 16.6314 57.9512C16.4878 58.5393 15.8061 59.2192 15.7342 59.4396C15.6625 59.6601 16.129 60.1194 16.3981 60.4135C16.6671 60.7074 17.2055 60.9096 17.4207 61.0566C17.636 61.2036 17.8871 61.4424 17.7435 61.7364C17.6 62.0305 17.4745 61.7732 17.2234 61.8283C16.9721 61.8835 16.3443 61.9752 15.9138 61.8835C15.4832 61.7915 15.4652 61.2402 14.8911 60.7442C14.317 60.248 13.725 59.6968 13.7788 59.3662C13.8325 59.0353 13.9044 57.547 13.8864 57.4552C13.8685 57.3633 13.1329 57.9697 12.3435 58.3554C11.5542 58.7414 9.9396 59.1366 9.84088 59.403C9.74218 59.6694 9.4193 60.9005 9.47309 61.2679C9.52689 61.6354 9.6256 61.8467 9.72431 62.0396L9.76602 62.1214C9.82267 62.2355 9.81397 62.2495 9.72431 62.3338C9.61662 62.4348 8.83623 62.3429 8.66576 62.1039C8.4954 61.8652 8.18151 60.4135 8.29808 60.092C8.41465 59.7705 9.04264 57.6573 9.27589 57.4735C9.50903 57.2897 10.3523 56.7753 10.8187 55.6177C11.1883 54.7008 11.0737 53.2881 11.2331 52.4846C8.67126 52.4601 5.42079 52.728 5 49.1032C4.88252 48.0915 5.53522 47.2633 6.40972 46.7798ZM54.982 0L77.7412 55.1475C78.8501 57.8318 80.8196 59.1741 83.6498 59.1741H84.0001V61.0561H55.4196V59.1741C60.7302 58.9991 63.3854 57.7443 63.3854 55.41C63.3854 54.7681 63.2686 54.1699 63.0353 53.6156L58.8336 43.5051H38.3064L35.1552 51.5584C34.7467 52.6089 34.5424 53.6301 34.5424 54.6222C34.5424 57.4817 36.8767 58.9991 41.5452 59.1741V61.0561L29.9216 61.0592C30.7367 58.7057 32.5583 54.0727 32.6971 53.6988C32.8762 53.2157 33.1393 52.5498 33.1348 52.0605C33.1303 51.5712 33.2774 50.8454 33.006 49.9214C32.7347 48.9973 32.4119 48.2058 32.3644 47.7041C32.3172 47.2026 32.4692 45.8804 32.5199 45.0361C32.5706 44.1918 32.7978 43.6189 32.9036 43.5115C33.0093 43.404 32.9749 43.3161 33.265 43.2963C33.5551 43.2765 33.7185 43.2168 34.1357 43.2581C34.5527 43.2993 35.0225 43.1629 35.3769 43.1469C35.7312 43.1311 36.1074 43.1571 36.5763 42.8995C37.0453 42.6419 37.1268 42.4146 37.3122 42.2013C37.4977 41.9881 37.7298 41.6147 37.8068 41.4094C37.8837 41.2043 37.9285 41.0762 37.5415 40.9901C37.1544 40.9039 36.5338 40.5957 36.1048 40.5102C35.6758 40.4246 35.1562 40.316 34.9453 40.1193C34.7344 39.9227 34.639 39.6846 34.4882 39.5351C34.3374 39.3856 34.2533 39.3077 33.9114 39.1935C33.5698 39.0795 32.9857 38.7296 32.776 38.6751C32.5661 38.6205 32.2971 38.5609 32.2395 38.4444C32.1817 38.328 31.8377 37.5553 31.6945 37.198C31.5512 36.8409 31.2728 36.2351 31.1655 36.2478C31.0584 36.2609 30.9567 37.2007 30.7326 37.7617C30.5086 38.3227 30.1849 38.8472 30.1724 39.1354C30.16 39.4234 29.881 39.878 29.6622 40.2425C29.4435 40.607 28.7041 41.9811 28.4155 42.9709C28.127 43.9607 27.4066 45.2036 27.0385 45.5712C26.6701 45.9389 24.5901 47.2399 24.0422 47.6161C23.8783 47.7287 23.7512 47.8172 23.637 47.894L43.2884 0H54.982ZM48.2417 17.8572L39.6632 40.0038H57.3892L48.2417 17.8572Z" stroke="black" stroke-width="2" mask="url(#path-1-inside-1_1_3588)"/>
</g>
<defs>
<filter id="filter0_d_1_3588" x="0.986328" y="0" width="87.0137" height="70.374" filterUnits="userSpaceOnUse" color-interpolation-filters="sRGB">
<feFlood flood-opacity="0" result="BackgroundImageFix"/>
<feColorMatrix in="SourceAlpha" type="matrix" values="0 0 0 0 0 0 0 0 0 0 0 0 0 0 0 0 0 0 127 0" result="hardAlpha"/>
<feOffset dy="4"/>
<feGaussianBlur stdDeviation="2"/>
<feComposite in2="hardAlpha" operator="out"/>
<feColorMatrix type="matrix" values="0 0 0 0 0 0 0 0 0 0 0 0 0 0 0 0 0 0 0.25 0"/>
<feBlend mode="normal" in2="BackgroundImageFix" result="effect1_dropShadow_1_3588"/>
<feBlend mode="normal" in="SourceGraphic" in2="effect1_dropShadow_1_3588" result="shape"/>
</filter>
</defs>
</svg>
